<?xml version="1.0" encoding="utf-8"?>
<!-- Generator: Adobe Illustrator 28.3.0, SVG Export Plug-In . SVG Version: 6.00 Build 0)  -->
<svg version="1.1" xmlns="http://www.w3.org/2000/svg" xmlns:xlink="http://www.w3.org/1999/xlink" x="0px" y="0px"
	 viewBox="0 0 400 70" style="enable-background:new 0 0 400 70;" xml:space="preserve">
<style type="text/css">
	.st0{display:none;}
	.st1{display:inline;fill:#161719;}
	.st2{fill:url(#SVGID_1_);}
	.st3{fill:#FFFFFF;}
</style>
<g id="Background" class="st0">
	<rect class="st1" width="400" height="70"/>
</g>
<g id="Layer_1">
	<g>
		<linearGradient id="SVGID_1_" gradientUnits="userSpaceOnUse" x1="35" y1="70" x2="35" y2="-1.818989e-12">
			<stop  offset="0" style="stop-color:#B21114"/>
			<stop  offset="1" style="stop-color:#DD1619"/>
		</linearGradient>
		<circle class="st2" cx="35" cy="35" r="35"/>
	</g>
	<g>
		<g>
			<path class="st3" d="M117.2,45.6c-1.2,2.5-3.1,4.5-5.7,6.1c-2.6,1.6-5.5,2.4-8.8,2.4c-5.4,0-9.8-1.5-13.1-4.5
				c-3.3-3-4.9-7.3-4.9-12.8c0-5.7,1.6-10.3,4.8-13.7c3.2-3.4,7.4-5.1,12.6-5.1c3.7,0,6.8,0.8,9.2,2.5c2.4,1.7,4.3,3.9,5.6,6.8
				l-7,2.6c-0.8-1.8-1.8-3.1-3.1-3.8c-1.2-0.8-2.8-1.2-4.6-1.2c-2.7,0-4.9,1.1-6.7,3.2c-1.7,2.1-2.6,4.9-2.6,8.2
				c0,3.5,0.9,6.2,2.7,8.1c1.8,1.9,4.2,2.8,7.3,2.8c1.7,0,3.2-0.4,4.4-1.2s2.3-1.9,3-3.5L117.2,45.6z"/>
			<path class="st3" d="M125.8,25.2c-1.3,0-2.4-0.4-3.3-1.2c-0.8-0.8-1.3-1.8-1.3-3.1c0-1.3,0.4-2.3,1.3-3.1
				c0.8-0.8,1.9-1.2,3.3-1.2c1.4,0,2.4,0.4,3.3,1.2c0.8,0.8,1.3,1.8,1.3,3.1s-0.4,2.3-1.3,3.1C128.3,24.8,127.2,25.2,125.8,25.2z
				 M129.7,53.5h-7.7v-25h7.7V53.5z"/>
			<path class="st3" d="M151.8,35.2c-0.5-0.2-1.1-0.3-1.6-0.4c-0.5-0.1-1-0.1-1.5-0.1c-1.5,0-2.8,0.6-3.7,1.8c-1,1.2-1.4,2.9-1.4,5
				v11.9h-7.7v-25h7.7v4.4h0.1c0.6-1.6,1.5-2.8,2.6-3.7c1.1-0.8,2.4-1.2,4-1.2c0.6,0,1.2,0,1.7,0.1c0.5,0.1,1.1,0.2,1.6,0.5
				L151.8,35.2z"/>
			<path class="st3" d="M179.1,47.7c-1.1,2.1-2.6,3.7-4.6,4.8c-1.9,1.1-4.1,1.6-6.6,1.6c-4,0-7.1-1.2-9.4-3.5
				c-2.3-2.3-3.4-5.3-3.4-9c0-4.2,1.2-7.6,3.7-10s5.7-3.7,9.7-3.7c2.5,0,4.6,0.6,6.5,1.7c1.9,1.1,3.1,2.8,3.8,5l-6.2,2.3
				c-0.5-1.1-1.1-1.8-1.8-2.3c-0.7-0.5-1.5-0.7-2.6-0.7c-1.5,0-2.8,0.6-3.8,1.7c-1,1.2-1.5,3-1.5,5.5c0,2.3,0.5,4.1,1.4,5.2
				c1,1.1,2.2,1.6,3.7,1.6c1.1,0,2.1-0.2,2.8-0.7c0.8-0.5,1.5-1.2,2.1-2.3L179.1,47.7z"/>
			<path class="st3" d="M183.6,53.5v-37h7.7v37H183.6z"/>
			<path class="st3" d="M219.8,43.2h-16.3c0.1,1.6,0.7,2.9,1.7,3.8c1,1,2.3,1.4,3.9,1.4c1,0,1.9-0.2,2.7-0.7
				c0.8-0.5,1.6-1.2,2.2-2.2l5.7,3.2c-1.4,1.9-3,3.2-4.8,4.1c-1.8,0.9-3.7,1.3-5.9,1.3c-4.1,0-7.4-1.1-9.7-3.4
				c-2.3-2.2-3.5-5.4-3.5-9.4c0-4.2,1.2-7.4,3.6-9.9c2.4-2.4,5.4-3.6,8.9-3.6c3.6,0,6.5,1.1,8.5,3.2c2,2.2,3,5.4,3,9.8V43.2z
				 M212.6,38.3c0-1.7-0.4-3-1.1-3.8c-0.7-0.9-1.7-1.3-2.9-1.3c-1.5,0-2.6,0.5-3.6,1.5c-0.9,1-1.5,2.2-1.6,3.7H212.6z"/>
			<path class="st3" d="M267.2,45.6c-1.2,2.5-3.1,4.5-5.7,6.1c-2.6,1.6-5.5,2.4-8.8,2.4c-5.4,0-9.8-1.5-13.1-4.5
				c-3.3-3-4.9-7.3-4.9-12.8c0-5.7,1.6-10.3,4.8-13.7c3.2-3.4,7.4-5.1,12.6-5.1c3.7,0,6.8,0.8,9.2,2.5c2.4,1.7,4.3,3.9,5.6,6.8
				l-7,2.6c-0.8-1.8-1.8-3.1-3.1-3.8c-1.2-0.8-2.8-1.2-4.6-1.2c-2.7,0-4.9,1.1-6.7,3.2c-1.7,2.1-2.6,4.9-2.6,8.2
				c0,3.5,0.9,6.2,2.7,8.1c1.8,1.9,4.2,2.8,7.3,2.8c1.7,0,3.2-0.4,4.4-1.2s2.3-1.9,3-3.5L267.2,45.6z"/>
			<path class="st3" d="M272.1,53.5v-37h7.7v37H272.1z"/>
			<path class="st3" d="M289.6,25.2c-1.3,0-2.4-0.4-3.3-1.2c-0.8-0.8-1.3-1.8-1.3-3.1c0-1.3,0.4-2.3,1.3-3.1
				c0.8-0.8,1.9-1.2,3.3-1.2c1.4,0,2.4,0.4,3.3,1.2c0.8,0.8,1.3,1.8,1.3,3.1s-0.4,2.3-1.3,3.1C292,24.8,290.9,25.2,289.6,25.2z
				 M293.4,53.5h-7.7v-25h7.7V53.5z"/>
			<path class="st3" d="M322,47.7c-1.1,2.1-2.6,3.7-4.6,4.8c-1.9,1.1-4.1,1.6-6.6,1.6c-4,0-7.1-1.2-9.4-3.5c-2.3-2.3-3.4-5.3-3.4-9
				c0-4.2,1.2-7.6,3.7-10s5.7-3.7,9.7-3.7c2.5,0,4.6,0.6,6.5,1.7c1.9,1.1,3.1,2.8,3.8,5l-6.2,2.3c-0.5-1.1-1.1-1.8-1.8-2.3
				c-0.7-0.5-1.5-0.7-2.6-0.7c-1.5,0-2.8,0.6-3.8,1.7c-1,1.2-1.5,3-1.5,5.5c0,2.3,0.5,4.1,1.4,5.2c1,1.1,2.2,1.6,3.7,1.6
				c1.1,0,2.1-0.2,2.8-0.7c0.8-0.5,1.5-1.2,2.1-2.3L322,47.7z"/>
			<path class="st3" d="M351.6,53.5h-9.4l-7.9-11.9h-0.1v11.9h-7.7v-37h7.7v23.1h0.1l7.8-11.1h8.8l-8.7,11.7L351.6,53.5z"/>
			<path class="st3" d="M377.5,43.2h-16.3c0.1,1.6,0.7,2.9,1.7,3.8c1,1,2.3,1.4,3.9,1.4c1,0,1.9-0.2,2.7-0.7
				c0.8-0.5,1.6-1.2,2.2-2.2l5.7,3.2c-1.4,1.9-3,3.2-4.8,4.1c-1.8,0.9-3.7,1.3-5.9,1.3c-4.1,0-7.4-1.1-9.7-3.4
				c-2.3-2.2-3.5-5.4-3.5-9.4c0-4.2,1.2-7.4,3.6-9.9c2.4-2.4,5.4-3.6,8.9-3.6c3.6,0,6.5,1.1,8.5,3.2c2,2.2,3,5.4,3,9.8V43.2z
				 M370.3,38.3c0-1.7-0.4-3-1.1-3.8c-0.7-0.9-1.7-1.3-2.9-1.3c-1.5,0-2.6,0.5-3.6,1.5c-0.9,1-1.5,2.2-1.6,3.7H370.3z"/>
			<path class="st3" d="M398.2,35.2c-0.5-0.2-1.1-0.3-1.6-0.4c-0.5-0.1-1-0.1-1.5-0.1c-1.5,0-2.8,0.6-3.7,1.8c-1,1.2-1.4,2.9-1.4,5
				v11.9h-7.7v-25h7.7v4.4h0.1c0.6-1.6,1.5-2.8,2.6-3.7c1.1-0.8,2.4-1.2,4-1.2c0.6,0,1.2,0,1.7,0.1c0.5,0.1,1.1,0.2,1.6,0.5
				L398.2,35.2z"/>
		</g>
	</g>
</g>
</svg>
